<?xml version="1.0" standalone="no"?>
<!DOCTYPE svg PUBLIC "-//W3C//DTD SVG 20010904//EN"
 "http://www.w3.org/TR/2001/REC-SVG-20010904/DTD/svg10.dtd">
<svg version="1.0" xmlns="http://www.w3.org/2000/svg"
 width="460.000000pt" height="460.000000pt" viewBox="0 0 460.000000 460.000000"
 preserveAspectRatio="xMidYMid meet">
<metadata>
Created by potrace 1.14, written by Peter Selinger 2001-2017
</metadata>
<g transform="translate(0.000000,460.000000) scale(0.100000,-0.100000)"
fill="#000000" stroke="none">
<path d="M1975 4585 c-27 -7 -70 -16 -94 -20 -44 -7 -79 -19 -156 -54 -22 -10
-51 -22 -65 -26 -36 -11 -149 -74 -191 -107 -28 -21 -48 -28 -82 -28 -63 0
-77 -7 -77 -40 0 -15 -9 -35 -20 -45 -21 -19 -26 -50 -10 -60 16 -10 12 -30
-14 -68 -32 -47 -85 -212 -96 -301 -9 -71 2 -213 20 -245 5 -11 2 -24 -11 -40
-14 -17 -16 -27 -9 -42 13 -23 36 -25 44 -2 4 11 10 13 16 7 7 -7 3 -38 -10
-90 -24 -96 -25 -134 -5 -202 14 -45 23 -57 63 -82 26 -16 52 -31 57 -33 6 -2
1 -14 -9 -26 -16 -17 -17 -26 -8 -45 8 -18 22 -25 64 -31 29 -4 60 -7 69 -6 9
1 28 -17 44 -41 15 -23 57 -72 93 -108 l66 -65 -54 -8 c-65 -9 -117 -52 -173
-144 -43 -72 -44 -79 -17 -88 18 -6 14 -10 -27 -30 -93 -45 -237 -101 -423
-166 -171 -60 -340 -160 -430 -255 -62 -66 -120 -139 -120 -151 0 -4 -12 -31
-27 -58 -54 -101 -130 -315 -189 -530 -13 -49 -35 -124 -49 -165 -13 -41 -27
-93 -31 -115 -3 -22 -19 -86 -35 -143 -17 -57 -35 -140 -41 -185 -6 -45 -17
-100 -25 -121 -13 -36 -13 -42 5 -65 13 -17 30 -27 53 -29 l34 -3 1 -222 c0
-250 9 -307 48 -307 l23 0 -19 68 c-21 77 -37 255 -38 421 0 112 0 113 23 108
12 -3 72 -15 132 -27 61 -13 160 -37 220 -55 61 -18 131 -38 158 -45 26 -7 47
-16 47 -20 0 -4 -28 -15 -63 -24 -64 -18 -200 -81 -224 -104 -7 -7 -13 -18
-13 -23 0 -6 7 -4 15 4 26 27 162 86 222 96 32 6 114 27 183 46 69 19 133 35
144 35 10 0 66 14 125 31 58 17 134 37 168 45 35 7 107 26 160 42 54 16 125
36 158 43 l61 15 1 -66 c2 -101 27 -197 63 -241 l30 -38 -40 -26 c-22 -14 -45
-25 -51 -25 -6 0 -37 -15 -68 -34 -32 -19 -69 -37 -82 -41 -13 -4 -31 -13 -39
-20 -8 -8 -49 -29 -90 -49 -41 -19 -91 -44 -110 -55 -19 -11 -53 -28 -75 -38
l-40 -18 46 -3 c50 -3 37 -9 472 216 67 35 138 68 157 74 19 5 44 18 55 28 11
10 43 32 72 48 l51 31 89 -36 c48 -20 117 -49 153 -65 119 -55 240 -90 322
-93 75 -3 266 9 321 21 l27 6 -5 -89 c-3 -48 -8 -100 -10 -115 -4 -25 -2 -28
25 -28 l30 0 0 114 c0 135 -21 120 195 136 83 6 156 13 163 15 14 5 9 -47 -13
-130 -7 -27 -16 -69 -20 -92 l-7 -43 46 0 45 0 7 47 c4 25 4 87 1 137 l-5 92
226 27 c125 15 279 32 342 37 188 17 312 39 360 63 64 32 95 97 121 258 11 68
31 184 45 256 14 73 31 179 39 235 7 57 29 198 48 313 53 318 62 384 50 396
-10 10 -222 0 -513 -25 -91 -8 -201 -18 -245 -21 -44 -3 -165 -19 -270 -35
-305 -46 -282 -45 -299 -17 -9 12 -24 48 -34 78 -72 208 -99 258 -178 334 -65
62 -147 103 -339 170 -27 10 -56 23 -64 29 -11 9 -13 8 -9 -4 2 -8 21 -24 40
-35 20 -11 57 -32 83 -47 26 -16 51 -28 56 -28 25 0 179 -114 214 -159 41 -52
99 -174 136 -285 12 -33 26 -67 31 -74 14 -17 13 -17 -62 -32 -84 -16 -150
-38 -173 -58 -30 -26 -52 -86 -136 -357 -17 -55 -35 -118 -40 -140 -5 -22 -22
-89 -39 -150 -17 -60 -45 -171 -63 -245 -17 -74 -33 -136 -34 -138 -7 -9 -64
23 -85 49 -37 44 -77 46 -217 13 -134 -32 -118 -42 30 -20 108 16 126 13 171
-29 32 -29 73 -48 87 -39 10 6 11 -11 3 -43 -9 -33 -84 -25 -149 16 -73 46
-210 83 -251 67 -27 -10 0 -33 49 -40 97 -15 187 -48 208 -78 25 -34 21 -62
-8 -66 -12 -2 -52 11 -90 29 -101 48 -144 49 -229 7 -80 -41 -120 -52 -129
-38 -6 10 -21 4 -166 -71 -66 -34 -80 -35 -101 -11 -19 21 -63 142 -73 199
-15 91 10 120 115 137 66 10 208 55 212 66 3 11 182 80 207 80 7 0 65 16 127
37 l114 36 23 -21 c13 -12 26 -22 29 -22 3 0 28 -23 55 -50 28 -28 55 -50 62
-50 26 0 8 36 -41 82 -65 61 -106 88 -135 88 -47 0 -254 -61 -277 -82 -6 -4
-18 -8 -28 -8 -10 0 -49 -14 -86 -31 -83 -39 -273 -91 -286 -78 -6 5 -25 9
-44 9 -25 0 -41 -8 -62 -30 -15 -16 -34 -30 -42 -30 -7 0 -56 -14 -108 -30
-51 -17 -102 -30 -111 -30 -9 0 -54 -11 -100 -25 -46 -14 -129 -36 -184 -51
-55 -14 -135 -37 -178 -51 -43 -14 -80 -23 -81 -22 -2 2 5 49 15 104 32 172
44 474 23 575 l-6 25 -19 -24 c-10 -13 -19 -33 -19 -45 0 -18 -2 -17 -19 9
-20 33 -61 73 -61 60 0 -4 14 -37 30 -72 36 -76 37 -106 11 -315 -11 -84 -21
-192 -23 -240 -2 -55 -7 -89 -15 -92 -6 -3 -14 2 -17 9 -3 8 -24 23 -48 35
-62 30 -334 96 -473 115 -173 23 -163 20 -153 63 85 373 157 638 253 927 50
149 116 289 171 360 50 65 194 195 216 195 5 0 35 15 67 34 32 18 75 39 97 46
21 7 66 25 99 40 33 15 73 30 88 34 45 11 258 110 316 148 l34 22 19 -25 c11
-13 27 -33 36 -44 55 -67 96 -139 209 -369 43 -88 80 -136 104 -136 4 0 40 45
79 100 38 54 87 119 108 142 20 24 45 55 54 68 l17 25 1 -25 c0 -14 -7 -54
-16 -90 -26 -100 -17 -130 67 -208 75 -70 123 -152 135 -228 8 -56 28 -53 32
5 4 55 -23 137 -60 180 -28 32 -29 34 -10 46 10 8 24 32 32 54 8 26 38 67 80
110 37 39 73 85 80 103 6 18 27 64 45 102 l33 69 -23 66 c-12 36 -25 82 -29
101 l-6 36 72 28 c140 54 243 150 303 282 45 98 55 159 55 329 0 77 4 145 9
151 4 5 14 32 21 59 19 74 48 125 75 135 22 8 25 16 25 55 0 40 -4 47 -32 65
-17 10 -49 22 -70 25 -41 7 -43 12 -51 90 -3 33 1 45 25 68 24 25 28 36 28 88
0 41 -7 74 -23 107 -23 48 -23 48 -5 92 11 24 21 63 25 85 4 34 1 46 -21 72
-14 17 -26 40 -26 52 0 13 -10 26 -24 32 -15 7 -22 17 -19 28 7 28 -20 41
-113 55 -49 7 -123 27 -164 43 -165 67 -195 73 -351 72 -86 0 -164 -6 -194
-14z m765 -564 l34 -29 4 -130 4 -130 -31 -7 c-21 -4 -37 -2 -47 6 -36 30
-112 67 -152 75 -19 4 -36 -1 -52 -14 -21 -17 -23 -23 -13 -45 7 -16 27 -30
53 -39 l42 -14 -86 -33 c-103 -40 -153 -42 -198 -8 -18 14 -52 31 -76 38 -29
8 -39 16 -32 23 14 14 13 49 -2 64 -26 26 -132 2 -188 -43 -8 -7 -44 -15 -80
-18 -36 -3 -94 -15 -130 -26 -36 -11 -98 -24 -139 -27 l-74 -7 6 24 c3 13 9
44 12 69 10 71 45 169 63 179 10 5 49 14 87 21 87 15 206 49 223 62 8 7 7 -1
-3 -26 -20 -48 -7 -76 36 -76 48 0 271 57 330 85 43 20 71 25 134 26 44 0 109
6 145 14 90 18 91 18 130 -14z m45 -393 c3 -18 5 -96 3 -173 l-3 -140 -60 0
c-53 1 -66 5 -111 38 -61 44 -72 77 -42 119 19 27 68 40 68 18 0 -18 39 -50
55 -44 9 4 15 19 15 39 0 44 -53 80 -106 72 -27 -5 -33 -3 -27 7 10 17 61 59
90 74 20 11 23 9 33 -23 6 -19 16 -35 20 -35 15 0 31 40 25 60 -5 15 -2 20 14
20 15 0 22 -9 26 -32z m-554 -19 c46 -12 69 -38 76 -87 16 -119 -101 -241
-234 -244 -88 -2 -147 43 -185 142 -23 59 -23 85 3 126 22 36 33 41 45 23 4
-7 14 -2 28 15 33 42 154 53 267 25z m644 -94 c-3 -31 -8 -55 -9 -53 -2 1 -6
34 -9 72 -6 64 -5 69 9 54 13 -13 15 -27 9 -73z m-1201 52 c17 -13 55 -30 84
-36 44 -11 53 -17 57 -40 24 -121 52 -173 122 -227 96 -74 252 -48 357 60 43
45 66 104 66 175 0 38 1 38 45 44 57 8 74 1 81 -32 3 -14 11 -43 19 -63 13
-38 13 -38 -10 -32 -44 11 -47 -6 -10 -47 39 -43 43 -64 18 -91 -23 -25 -58
-23 -98 8 -40 30 -69 28 -73 -4 -5 -33 12 -48 75 -68 50 -16 59 -16 97 -2 35
13 43 21 56 60 l15 45 32 -18 c50 -28 104 -39 146 -30 20 5 39 5 42 1 3 -5 1
-64 -5 -132 -10 -115 -13 -128 -51 -203 -47 -92 -63 -111 -141 -171 -110 -85
-267 -114 -416 -75 -111 29 -142 28 -142 -2 0 -57 125 -108 267 -110 l83 -1 0
-30 c0 -42 27 -167 38 -178 11 -11 -32 -100 -75 -156 -15 -21 -55 -65 -89 -99
-42 -41 -67 -74 -75 -102 -7 -23 -16 -41 -20 -41 -15 0 -69 62 -75 86 -3 13 1
45 10 71 19 55 20 149 3 179 -15 27 -114 114 -129 114 -6 0 -33 16 -59 35 -27
19 -52 35 -55 35 -7 0 -52 37 -126 102 l-42 37 21 23 c12 13 27 36 33 53 17
45 -19 103 -123 199 -48 44 -102 104 -119 131 -17 28 -38 61 -47 75 -9 14 -16
36 -16 50 0 23 -4 25 -50 28 -81 4 -101 22 -119 104 -7 32 26 192 44 213 14
17 63 20 91 4 11 -5 41 -30 66 -55 26 -24 49 -44 52 -44 23 1 32 25 38 98 l6
82 35 0 c21 0 47 -9 66 -23z m-4 -839 c0 -57 -12 -62 -56 -21 l-39 37 35 7
c59 11 60 11 60 -23z m-98 -15 c10 -9 18 -22 18 -30 0 -18 188 -203 206 -203
8 0 14 -4 14 -9 0 -5 17 -19 38 -32 98 -58 192 -124 197 -139 3 -10 -13 -35
-43 -66 -50 -52 -156 -180 -183 -220 l-16 -25 -19 28 c-10 15 -45 82 -78 148
-79 159 -127 231 -225 331 -36 37 -42 49 -36 72 6 29 91 162 102 162 3 0 15
-7 25 -17z m2968 -907 c0 -7 -11 -67 -24 -132 -13 -66 -27 -144 -31 -174 -4
-30 -18 -109 -31 -175 -14 -66 -29 -156 -35 -200 -5 -44 -23 -150 -39 -235
-16 -85 -34 -190 -39 -233 -13 -94 -45 -165 -86 -189 -29 -16 -248 -48 -440
-63 -44 -4 -186 -19 -315 -35 -129 -16 -287 -34 -351 -40 -112 -10 -430 -52
-498 -66 l-34 -7 7 39 c4 21 22 102 41 179 19 77 40 172 48 210 27 136 120
482 182 680 19 61 42 135 51 165 30 100 60 118 228 140 50 6 93 13 96 15 13 8
298 54 370 60 41 3 125 12 185 20 177 23 339 37 505 45 85 4 167 8 183 8 17 1
27 -3 27 -12z m-4430 -1231 l0 -34 -32 14 c-54 22 -47 50 15 54 13 1 17 -7 17
-34z m2516 -120 c-3 -16 -10 -67 -17 -113 l-11 -83 -57 6 c-52 6 -299 82 -342
106 -11 5 -52 18 -92 29 -58 15 -65 18 -37 19 19 1 62 15 95 32 84 44 131 43
216 -4 76 -42 126 -48 154 -17 13 14 16 29 12 53 l-5 34 44 -16 c42 -15 45
-18 40 -46z"/>
<path d="M2080 3544 c-61 -25 -109 -151 -65 -168 15 -6 35 28 35 59 0 16 47
55 66 55 7 0 28 -18 47 -41 31 -35 38 -39 56 -29 30 15 26 41 -11 84 -41 46
-82 58 -128 40z"/>
<path d="M1315 3410 c-3 -5 -3 -16 2 -22 4 -7 6 -25 4 -40 -3 -33 29 -54 58
-39 14 8 23 6 36 -9 23 -26 61 -26 75 0 16 30 -1 54 -64 89 -54 31 -99 40
-111 21z"/>
<path d="M2237 3097 c-10 -28 31 -95 75 -123 61 -40 129 -39 194 2 40 24 50
36 52 61 2 24 -1 33 -17 38 -21 6 -61 -9 -61 -24 0 -5 -18 -16 -39 -24 -29
-12 -47 -14 -72 -6 -35 10 -99 61 -99 79 0 15 -27 12 -33 -3z"/>
<path d="M3740 1233 c0 -31 -8 -43 -51 -83 -36 -33 -50 -53 -47 -67 2 -13 -8
-31 -24 -47 -53 -48 -32 -98 49 -122 143 -41 317 28 287 113 -5 16 -21 34 -36
41 -14 6 -28 23 -32 35 -3 13 -16 28 -29 34 -14 6 -27 24 -31 38 -8 33 -56 95
-73 95 -8 0 -13 -14 -13 -37z m47 -93 c8 -28 14 -35 33 -35 30 0 37 -26 16
-57 -9 -12 -16 -26 -16 -30 0 -14 33 -9 52 8 14 14 20 14 33 4 21 -17 19 -33
-7 -57 -66 -60 -249 -57 -272 3 -9 24 40 74 73 74 l26 1 -29 15 -28 16 46 42
c25 24 46 49 46 56 0 24 18 -3 27 -40z"/>
<path d="M2460 2521 c0 -6 17 -22 38 -37 20 -16 43 -35 50 -43 14 -17 16 -83
3 -128 -9 -32 -65 -111 -89 -126 -21 -14 -42 -64 -42 -102 l0 -36 -29 20 c-16
12 -35 21 -43 21 -16 0 -60 -44 -77 -77 -17 -34 -14 -34 23 3 19 19 39 34 45
34 6 0 31 -18 55 -40 59 -54 76 -47 76 31 0 66 18 119 47 140 11 8 26 25 33
39 7 14 24 35 37 47 20 19 23 31 23 93 0 39 -5 80 -10 91 -6 10 -37 33 -70 49
-65 33 -70 34 -70 21z"/>
<path d="M1965 2020 c19 -77 66 -130 114 -130 10 0 25 -10 34 -22 14 -22 15
-22 23 -4 8 22 -26 56 -56 56 -26 0 -77 45 -101 89 -14 26 -18 29 -14 11z"/>
<path d="M960 1979 c0 -9 9 -65 19 -125 11 -60 22 -134 26 -164 6 -50 48 -306
61 -372 3 -16 10 -28 15 -28 12 0 11 124 -2 251 -11 116 -79 396 -103 431 -12
16 -16 18 -16 7z"/>
<path d="M1234 1758 c11 -258 15 -300 34 -296 25 5 34 70 29 203 -5 120 -35
245 -59 245 -6 0 -8 -53 -4 -152z"/>
<path d="M2360 819 c-30 -5 -68 -14 -85 -19 -16 -5 -49 -14 -73 -20 -52 -13
-47 -31 5 -20 21 4 93 13 160 20 133 14 122 17 240 -51 23 -13 45 -21 48 -17
11 11 -26 58 -59 74 -17 8 -42 21 -56 29 -28 16 -95 18 -180 4z"/>
<path d="M1922 217 c-12 -17 -37 -52 -55 -76 -18 -24 -38 -56 -46 -70 -7 -14
-23 -36 -34 -49 l-20 -22 35 0 c30 0 40 6 56 33 36 58 102 190 102 204 0 21
-14 14 -38 -20z"/>
</g>
</svg>
